<svg xmlns="http://www.w3.org/2000/svg" width="920" height="560" font-family="Helvetica,Arial,sans-serif">
<rect width="920" height="560" fill="white"/>
<text x="460.0" y="26" font-size="15" font-weight="bold" text-anchor="middle">Fig. 2. Diferencia de F1 entre condiciones con IC 95 % (bootstrap pareado, 1000 remuestreos)</text>
<text x="460.0" y="44" font-size="12" fill="#555" text-anchor="middle">12 comparaciones: 3 pares de condiciones x 2 modelos x 2 corridas independientes (n = 30 historias)</text>
<line x1="274.2" y1="58" x2="274.2" y2="490" stroke="#e6e6e6"/>
<text x="274.2" y="508" font-size="11" fill="#444" text-anchor="middle">-0.10</text>
<line x1="395.4" y1="58" x2="395.4" y2="490" stroke="#e6e6e6"/>
<text x="395.4" y="508" font-size="11" fill="#444" text-anchor="middle">-0.05</text>
<line x1="516.5" y1="58" x2="516.5" y2="490" stroke="#e6e6e6"/>
<text x="516.5" y="508" font-size="11" fill="#444" text-anchor="middle">+0.00</text>
<line x1="637.7" y1="58" x2="637.7" y2="490" stroke="#e6e6e6"/>
<text x="637.7" y="508" font-size="11" fill="#444" text-anchor="middle">+0.05</text>
<line x1="758.8" y1="58" x2="758.8" y2="490" stroke="#e6e6e6"/>
<text x="758.8" y="508" font-size="11" fill="#444" text-anchor="middle">+0.10</text>
<line x1="880.0" y1="58" x2="880.0" y2="490" stroke="#e6e6e6"/>
<text x="880.0" y="508" font-size="11" fill="#444" text-anchor="middle">+0.15</text>
<line x1="516.5" y1="58" x2="516.5" y2="490" stroke="#c0392b" stroke-width="1.6" stroke-dasharray="5,4"/>
<line x1="250" y1="490" x2="880" y2="490" stroke="#333"/>
<text x="238" y="80.0" font-size="11.5" text-anchor="end" fill="#222">20b r2: json_objeto vs json_estricto</text>
<line x1="351.5" y1="76.0" x2="780.4" y2="76.0" stroke="#0b8457" stroke-width="2"/>
<line x1="351.5" y1="71.0" x2="351.5" y2="81.0" stroke="#0b8457" stroke-width="2"/>
<line x1="780.4" y1="71.0" x2="780.4" y2="81.0" stroke="#0b8457" stroke-width="2"/>
<circle cx="553.1" cy="76.0" r="4" fill="#0b8457"/>
<text x="238" y="116.0" font-size="11.5" text-anchor="end" fill="#222">20b r2: texto vs json_estricto</text>
<line x1="484.3" y1="112.0" x2="845.3" y2="112.0" stroke="#0b8457" stroke-width="2"/>
<line x1="484.3" y1="107.0" x2="484.3" y2="117.0" stroke="#0b8457" stroke-width="2"/>
<line x1="845.3" y1="107.0" x2="845.3" y2="117.0" stroke="#0b8457" stroke-width="2"/>
<circle cx="652.2" cy="112.0" r="4" fill="#0b8457"/>
<text x="238" y="152.0" font-size="11.5" text-anchor="end" fill="#222">20b r2: texto vs json_objeto</text>
<line x1="425.2" y1="148.0" x2="798.1" y2="148.0" stroke="#0b8457" stroke-width="2"/>
<line x1="425.2" y1="143.0" x2="425.2" y2="153.0" stroke="#0b8457" stroke-width="2"/>
<line x1="798.1" y1="143.0" x2="798.1" y2="153.0" stroke="#0b8457" stroke-width="2"/>
<circle cx="615.6" cy="148.0" r="4" fill="#0b8457"/>
<text x="238" y="188.0" font-size="11.5" text-anchor="end" fill="#222">20b r1: json_objeto vs json_estricto</text>
<line x1="330.7" y1="184.0" x2="661.2" y2="184.0" stroke="#0b8457" stroke-width="2"/>
<line x1="330.7" y1="179.0" x2="330.7" y2="189.0" stroke="#0b8457" stroke-width="2"/>
<line x1="661.2" y1="179.0" x2="661.2" y2="189.0" stroke="#0b8457" stroke-width="2"/>
<circle cx="506.4" cy="184.0" r="4" fill="#0b8457"/>
<text x="238" y="224.0" font-size="11.5" text-anchor="end" fill="#222">20b r1: texto vs json_estricto</text>
<line x1="409.9" y1="220.0" x2="659.5" y2="220.0" stroke="#0b8457" stroke-width="2"/>
<line x1="409.9" y1="215.0" x2="409.9" y2="225.0" stroke="#0b8457" stroke-width="2"/>
<line x1="659.5" y1="215.0" x2="659.5" y2="225.0" stroke="#0b8457" stroke-width="2"/>
<circle cx="538.3" cy="220.0" r="4" fill="#0b8457"/>
<text x="238" y="260.0" font-size="11.5" text-anchor="end" fill="#222">20b r1: texto vs json_objeto</text>
<line x1="406.0" y1="256.0" x2="708.0" y2="256.0" stroke="#0b8457" stroke-width="2"/>
<line x1="406.0" y1="251.0" x2="406.0" y2="261.0" stroke="#0b8457" stroke-width="2"/>
<line x1="708.0" y1="251.0" x2="708.0" y2="261.0" stroke="#0b8457" stroke-width="2"/>
<circle cx="548.5" cy="256.0" r="4" fill="#0b8457"/>
<text x="238" y="296.0" font-size="11.5" text-anchor="end" fill="#222">120b r2: json_objeto vs json_estricto</text>
<line x1="422.5" y1="292.0" x2="600.6" y2="292.0" stroke="#1f4e9c" stroke-width="2"/>
<line x1="422.5" y1="287.0" x2="422.5" y2="297.0" stroke="#1f4e9c" stroke-width="2"/>
<line x1="600.6" y1="287.0" x2="600.6" y2="297.0" stroke="#1f4e9c" stroke-width="2"/>
<circle cx="507.6" cy="292.0" r="4" fill="#1f4e9c"/>
<text x="238" y="332.0" font-size="11.5" text-anchor="end" fill="#222">120b r2: texto vs json_estricto</text>
<line x1="332.1" y1="328.0" x2="587.0" y2="328.0" stroke="#1f4e9c" stroke-width="2"/>
<line x1="332.1" y1="323.0" x2="332.1" y2="333.0" stroke="#1f4e9c" stroke-width="2"/>
<line x1="587.0" y1="323.0" x2="587.0" y2="333.0" stroke="#1f4e9c" stroke-width="2"/>
<circle cx="450.1" cy="328.0" r="4" fill="#1f4e9c"/>
<text x="238" y="368.0" font-size="11.5" text-anchor="end" fill="#222">120b r2: texto vs json_objeto</text>
<line x1="312.5" y1="364.0" x2="596.0" y2="364.0" stroke="#1f4e9c" stroke-width="2"/>
<line x1="312.5" y1="359.0" x2="312.5" y2="369.0" stroke="#1f4e9c" stroke-width="2"/>
<line x1="596.0" y1="359.0" x2="596.0" y2="369.0" stroke="#1f4e9c" stroke-width="2"/>
<circle cx="459.4" cy="364.0" r="4" fill="#1f4e9c"/>
<text x="238" y="404.0" font-size="11.5" text-anchor="end" fill="#222">120b r1: json_objeto vs json_estricto</text>
<line x1="408.0" y1="400.0" x2="583.9" y2="400.0" stroke="#1f4e9c" stroke-width="2"/>
<line x1="408.0" y1="395.0" x2="408.0" y2="405.0" stroke="#1f4e9c" stroke-width="2"/>
<line x1="583.9" y1="395.0" x2="583.9" y2="405.0" stroke="#1f4e9c" stroke-width="2"/>
<circle cx="495.0" cy="400.0" r="4" fill="#1f4e9c"/>
<text x="238" y="440.0" font-size="11.5" text-anchor="end" fill="#222">120b r1: texto vs json_estricto</text>
<line x1="275.7" y1="436.0" x2="523.6" y2="436.0" stroke="#1f4e9c" stroke-width="2"/>
<line x1="275.7" y1="431.0" x2="275.7" y2="441.0" stroke="#1f4e9c" stroke-width="2"/>
<line x1="523.6" y1="431.0" x2="523.6" y2="441.0" stroke="#1f4e9c" stroke-width="2"/>
<circle cx="404.1" cy="436.0" r="4" fill="#1f4e9c"/>
<text x="238" y="476.0" font-size="11.5" text-anchor="end" fill="#222">120b r1: texto vs json_objeto</text>
<line x1="290.9" y1="472.0" x2="550.5" y2="472.0" stroke="#1f4e9c" stroke-width="2"/>
<line x1="290.9" y1="467.0" x2="290.9" y2="477.0" stroke="#1f4e9c" stroke-width="2"/>
<line x1="550.5" y1="467.0" x2="550.5" y2="477.0" stroke="#1f4e9c" stroke-width="2"/>
<circle cx="425.9" cy="472.0" r="4" fill="#1f4e9c"/>
<text x="460.0" y="536" font-size="12" text-anchor="middle" fill="#222">Diferencia de F1 (condicion A - condicion B)</text>
<text x="460.0" y="552" font-size="11" text-anchor="middle" fill="#666">Los 12 intervalos cruzan el cero: ninguna diferencia es distinguible del azar.</text>
</svg>